<?xml version="1.0" encoding="utf-8"?>
<!-- Generator: Adobe Illustrator 16.0.0, SVG Export Plug-In . SVG Version: 6.00 Build 0)  -->
<!DOCTYPE svg PUBLIC "-//W3C//DTD SVG 1.1//EN" "http://www.w3.org/Graphics/SVG/1.1/DTD/svg11.dtd">
<svg version="1.1" id="Layer_1" xmlns="http://www.w3.org/2000/svg" xmlns:xlink="http://www.w3.org/1999/xlink" x="0px" y="0px"
	 width="1103.945px" height="37.945px" viewBox="0 0 1103.945 37.945" enable-background="new 0 0 1103.945 37.945"
	 xml:space="preserve">
<g>
	<path d="M21.875,31.056c0.33-0.93,0.495-2.146,0.495-3.65c0-3.701-0.388-7.267-1.164-10.699c-0.776-3.432-1.774-6.009-2.995-7.732
		c1.246-0.227,2.149-0.34,2.711-0.34c0.806,0,1.395,0.282,1.768,0.844c0.373,0.563,0.846,1.895,1.42,3.996
		c0.892,3.227,1.539,7.647,1.942,13.262c4.079-6.271,7.408-11.188,9.985-14.752c0.158-0.018,0.274-0.032,0.348-0.041
		c0.513-0.082,0.861-0.123,1.044-0.123c1.014,0,1.521,0.36,1.521,1.08c0,0.21-0.03,0.47-0.091,0.779
		c-0.489,2.962-0.733,5.15-0.733,6.562L38.07,21.8l-0.018,0.93c0,3.418,0.696,5.127,2.088,5.127c1.587,0,3.212-1.239,4.873-3.717
		c1.844-2.771,2.767-6.004,2.767-9.703c0-1.594-0.531-3.079-1.594-4.455c0.879-0.163,1.679-0.245,2.4-0.245
		c1.124,0,1.917,0.235,2.381,0.704c0.464,0.469,0.696,1.282,0.696,2.439c0,3.744-1.447,7.562-4.342,11.452
		c-1.332,1.785-2.831,3.257-4.498,4.414c-1.667,1.156-3.124,1.735-4.37,1.735c-1.392,0-2.373-0.579-2.94-1.736
		s-0.852-3.158-0.852-6.002c0-1.14,0.079-2.89,0.238-5.25c-2.943,3.813-5.191,6.962-6.742,9.443l-0.606,0.999
		c-0.87,1.332-1.559,2.139-2.067,2.422S23.773,30.873,21.875,31.056z"/>
	<path d="M60.016,24.789c0,2.665,1.514,3.997,4.543,3.997c2.625,0,5.521-0.933,8.684-2.796c3.163-1.865,6.015-4.32,8.556-7.367
		l1.557,0.641c-2.394,3.333-5.505,6.093-9.334,8.279s-7.459,3.279-10.892,3.279c-2.198,0-3.936-0.528-5.212-1.586
		c-1.276-1.058-1.915-2.502-1.915-4.334c0-2.644,1.157-4.903,3.472-6.781c2.314-1.877,5.102-2.816,8.363-2.816
		c1.576,0,2.836,0.296,3.783,0.888c0.946,0.592,1.42,1.385,1.42,2.377c0,1.631-1.316,3.075-3.948,4.333
		C66.461,24.16,63.436,24.789,60.016,24.789z M60.163,23.477c2.553-0.1,4.742-0.645,6.568-1.636
		c1.826-0.991,2.739-2.136,2.739-3.437c0-1.163-0.696-1.745-2.088-1.745c-1.661,0-3.194,0.664-4.599,1.991
		C61.378,19.977,60.504,21.586,60.163,23.477z"/>
	<path d="M100.081,19.339c-2.528,3.582-5.068,6.392-7.621,8.429s-4.812,3.056-6.778,3.056c-1.429,0-2.583-0.412-3.463-1.237
		c-0.879-0.824-1.319-1.902-1.319-3.233c0-0.747,0.183-1.805,0.55-3.172l3.646-13.699c-0.476,0.055-0.892,0.082-1.246,0.082
		c-2.81,0-4.214-0.875-4.214-2.625V6.624c1.466,0.62,3.121,0.93,4.965,0.93s3.456-0.342,4.836-1.025l-4.25,16.447
		c-0.379,1.477-0.568,2.493-0.568,3.049c0,1.54,0.757,2.311,2.271,2.311c1.466,0,2.94-0.617,4.424-1.853
		c1.484-1.234,3.917-3.867,7.301-7.896L100.081,19.339z"/>
	<path d="M123.017,19.312c-2.956,3.7-6.088,6.615-9.398,8.743c-3.31,2.129-6.381,3.192-9.215,3.192
		c-2.357,0-4.269-0.602-5.734-1.805c-1.465-1.203-2.198-2.767-2.198-4.689c0-2.534,1.264-4.741,3.792-6.624
		c2.528-1.882,5.496-2.823,8.904-2.823c1.38,0,2.513,0.198,3.398,0.595c0.885,0.396,1.328,0.9,1.328,1.511
		c0,1.003-1.142,1.755-3.426,2.256c0.122-0.219,0.183-0.428,0.183-0.629c0-1.477-1.05-2.215-3.151-2.215
		c-1.82,0-3.497,0.759-5.029,2.276c-1.533,1.518-2.299,3.179-2.299,4.983c0,1.468,0.51,2.664,1.53,3.589
		c1.02,0.926,2.348,1.388,3.984,1.388c4.495,0,9.759-3.478,15.792-10.432L123.017,19.312z"/>
	<path d="M139.082,20.405c0.037,0.219,0.055,0.415,0.055,0.588c0,2.634-1.197,4.931-3.591,6.891
		c-2.394,1.96-5.197,2.939-8.409,2.939c-2.455,0-4.455-0.585-6-1.757c-1.545-1.171-2.317-2.691-2.317-4.56
		c0-2.124,0.999-3.965,2.996-5.523c1.997-1.559,4.351-2.338,7.062-2.338c0.415,0,0.854,0.041,1.319,0.123
		c-0.305-0.41-0.458-0.756-0.458-1.039c0-0.438,0.202-0.856,0.604-1.258c2.98,0.183,5.459,1.322,7.438,3.418
		c2.027,1.03,4.141,1.545,6.339,1.545c1.429,0,2.974-0.36,4.635-1.08l0.916,1.162c-1.942,1.012-3.933,1.518-5.973,1.518
		C142.343,21.034,140.804,20.824,139.082,20.405z M134.923,19.243c-1.014-0.228-1.948-0.592-2.803-1.094
		c-0.623-0.099-1.142-0.149-1.558-0.15c-2.076,0.001-3.917,0.699-5.522,2.093c-1.605,1.395-2.409,2.984-2.411,4.771
		c0.002,1.294,0.488,2.358,1.458,3.191c0.97,0.833,2.218,1.251,3.745,1.252c2.064-0.001,3.841-0.778,5.33-2.332
		c1.489-1.554,2.235-3.405,2.237-5.557C135.398,20.67,135.239,19.945,134.923,19.243z"/>
	<path d="M152.198,25.676c4.397-6.913,8.281-10.37,11.652-10.37c1.478,0,2.217,0.796,2.217,2.388c0,0.683-0.318,2.22-0.953,4.612
		l-1.1,4.134c2.137-3.352,4.366-6.045,6.687-8.08c2.32-2.036,4.324-3.054,6.009-3.054c1.856,0,2.785,0.811,2.785,2.431
		c0,0.583-0.275,1.917-0.825,4.001l-0.568,2.131c-0.342,1.283-0.513,2.235-0.513,2.854c0,1.093,0.519,1.639,1.557,1.639
		c2.345,0,5.948-3.245,10.809-9.735l1.539,0.641c-5.301,7.704-9.929,11.555-13.887,11.555c-2.528,0-3.792-1.23-3.792-3.691
		c0-0.82,0.244-2.138,0.732-3.951l0.513-1.887c0.342-1.276,0.513-2.069,0.513-2.379c0-0.392-0.269-0.588-0.806-0.588
		c-1.319,0-3.683,1.955-7.09,5.864c-3.09,3.564-4.635,5.602-4.635,6.111c0,0.055,0.024,0.15,0.073,0.287
		c-0.171,0.027-0.47,0.086-0.898,0.178c-0.183,0.047-0.458,0.069-0.824,0.069c-1.136,0-1.704-0.405-1.704-1.216
		c0-0.245,0.183-0.987,0.549-2.226c0.134-0.446,0.269-0.925,0.403-1.435l0.77-2.895c0.562-2.085,0.842-3.337,0.842-3.756
		c0-0.61-0.299-0.915-0.897-0.915c-1.319,0-3.261,1.762-5.826,5.284c-2.553,3.496-3.829,5.58-3.829,6.254
		c0,0.191,0.098,0.377,0.293,0.56c-0.672,0.22-1.289,0.33-1.85,0.33c-1.271,0-1.905-0.511-1.905-1.531
		c0-0.128,0.183-1.454,0.549-3.979l0.421-2.912c0.146-1.021,0.22-1.964,0.22-2.83c0-1.094-0.299-1.896-0.897-2.406
		c1.417-0.383,2.418-0.574,3.004-0.574c1.075,0,1.612,0.474,1.612,1.421c0,0.337-0.146,1.59-0.439,3.758L152.198,25.676z"/>
	<path d="M191.622,24.789c0,2.665,1.514,3.997,4.543,3.997c2.625,0,5.521-0.933,8.684-2.796c3.163-1.865,6.015-4.32,8.556-7.367
		l1.557,0.641c-2.394,3.333-5.505,6.093-9.334,8.279s-7.459,3.279-10.892,3.279c-2.198,0-3.936-0.528-5.212-1.586
		c-1.276-1.058-1.915-2.502-1.915-4.334c0-2.644,1.157-4.903,3.472-6.781c2.314-1.877,5.102-2.816,8.363-2.816
		c1.576,0,2.836,0.296,3.783,0.888c0.946,0.592,1.42,1.385,1.42,2.377c0,1.631-1.316,3.075-3.948,4.333
		C198.067,24.16,195.042,24.789,191.622,24.789z M191.769,23.477c2.553-0.1,4.742-0.645,6.568-1.636
		c1.826-0.991,2.739-2.136,2.739-3.437c0-1.163-0.696-1.745-2.088-1.745c-1.661,0-3.194,0.664-4.599,1.991
		C192.984,19.977,192.11,21.586,191.769,23.477z"/>
	<path d="M305.455,15.434c-0.9,0.392-1.688,0.56-2.401,0.56c-0.15,0-0.413,0-0.788-0.056l-2.739,0.28c0,1.96-0.263,3.556-0.713,4.76
		c2.664,0.979,4.878,2.212,6.641,3.724c0.338,0.28,0.525,0.616,0.525,0.98c0,0.783-0.488,1.176-1.463,1.176
		c-0.45,0-0.938-0.195-1.388-0.588c-1.538-1.288-3.302-2.268-5.291-2.969c-1.838,3.725-4.69,5.572-8.555,5.572
		c-1.576,0-2.927-0.336-4.052-1.008c-1.201-0.728-1.764-1.68-1.764-2.884c0-1.597,0.713-2.912,2.176-3.948
		c1.426-1.008,3.152-1.512,5.253-1.512c1.651,0,3.339,0.225,5.028,0.616c0.338-1.064,0.525-2.716,0.525-4.956
		c0-1.764-0.263-2.8-0.713-3.136c-0.413-0.112-0.638-0.252-0.675-0.42c-0.15-0.504-0.225-0.98-0.225-1.372
		c0-1.204,0.675-1.82,2.101-1.82c0.675,0,1.276,0.812,1.801,2.436c0.3,1.064,0.488,2.072,0.563,3.024l5.253-0.644
		c1.051,0,1.613,0.42,1.613,1.204C306.167,14.901,305.905,15.237,305.455,15.434z M290.859,21.817c-1.201,0-2.214,0.308-3.077,0.868
		c-0.9,0.588-1.313,1.316-1.313,2.212c0,0.504,0.263,0.924,0.826,1.231c0.563,0.336,1.313,0.477,2.214,0.477
		c1.013,0,2.026-0.364,3.039-1.148c1.013-0.756,1.839-1.791,2.514-3.08C293.636,22.014,292.247,21.817,290.859,21.817z"/>
	<path d="M341.023,25.43c-1.351,2.408-3.002,4.451-4.916,6.132c-1.426,1.204-2.551,1.819-3.452,1.819
		c-1.125,0-1.651-0.42-1.651-1.203c0-0.756,0.638-1.344,1.951-1.793c0.563-0.252,1.163-0.699,1.838-1.315
		c1.351-1.315,2.552-2.912,3.602-4.788c1.126-2.044,1.688-3.808,1.688-5.292c0-1.736-0.825-2.632-2.401-2.632
		c-1.125,0-2.438,0.308-3.939,0.896c-0.3,0.448-0.788,0.868-1.539,1.26c-0.75,0.504-1.426,0.756-2.026,0.756
		c-1.276,0-1.876-0.336-1.876-1.008c0-0.224,0.075-0.476,0.226-0.7c0.562-0.784,1.801-1.54,3.677-2.268
		c2.214-0.84,4.127-1.26,5.778-1.26c2.251,0,3.79,0.812,4.653,2.38c0.3,0.616,0.45,1.288,0.45,2.044
		C343.087,20.586,342.374,22.91,341.023,25.43z M339.748,10.394c-0.3,0-0.601-0.056-0.9-0.168c-2.251-0.784-4.503-1.316-6.716-1.596
		c-0.976-0.112-1.426-0.504-1.426-1.148c0-0.308,0.113-0.588,0.413-0.868c0.263-0.224,0.6-0.364,1.013-0.364
		c1.463,0,3.639,0.448,6.491,1.344c1.05,0.336,1.613,0.504,1.688,0.532c0.563,0.308,0.863,0.7,0.863,1.204
		C341.173,10.058,340.686,10.394,339.748,10.394z"/>
	<path d="M378.543,16.974c-2.026,1.232-3.227,1.848-3.677,1.848c-1.051,0-1.539-0.364-1.539-1.148c0-0.448,0.225-0.812,0.713-1.092
		c1.576-0.868,3.227-1.848,4.953-2.94h-2.852c-1.651,0-3.302-0.168-4.99-0.532c-2.439-0.504-3.64-1.232-3.64-2.184
		c0-0.784,0.488-1.204,1.463-1.204c0.375,0,0.713,0.112,1.051,0.308c0.75,0.868,2.852,1.288,6.266,1.288c0.15,0,0.938,0,2.289-0.056
		c1.276-0.028,1.989-0.056,2.064-0.056c2.326,0,3.489,0.42,3.489,1.204C384.134,13.138,382.258,14.678,378.543,16.974z
		 M383.646,28.174c-1.801,0.951-3.939,1.455-6.341,1.455c-2.477,0-4.615-0.42-6.379-1.231c-2.026-0.896-3.001-2.101-3.001-3.556
		c0-0.98,0.638-2.072,1.988-3.248c0.263-0.252,0.601-0.393,1.051-0.393c0.375,0,0.75,0.141,1.088,0.364
		c0.3,0.28,0.451,0.56,0.451,0.868c0,0.363-0.413,0.867-1.201,1.512c-0.225,0.42-0.338,0.784-0.338,1.064
		c0,0.672,0.601,1.203,1.801,1.623c1.238,0.477,2.777,0.701,4.653,0.701c1.463,0,2.852-0.252,4.165-0.812
		c0.3-0.225,0.638-0.364,1.013-0.448c1.088,0,1.651,0.392,1.651,1.148C384.247,27.67,384.021,27.978,383.646,28.174z"/>
	<path d="M425.256,17.001c-2.326,1.148-4.353,2.352-6.116,3.584c-2.702,1.903-4.015,3.5-4.015,4.731
		c0,1.036,0.826,1.904,2.514,2.604c0.938,0.392,2.101,0.867,3.489,1.483c1.539,0.673,2.327,1.4,2.327,2.156
		s-0.488,1.147-1.463,1.147c-0.713,0-1.351-0.336-1.951-0.979c-0.45-0.224-1.651-0.756-3.64-1.597
		c-2.927-1.231-4.39-2.855-4.39-4.928c0-1.176,0.563-2.352,1.726-3.5c0.601-0.56,1.838-1.512,3.752-2.8
		c-2.776,0.757-5.59,1.12-8.517,1.12c-1.951,0-2.927-0.447-2.927-1.344c0-0.308,0.15-0.588,0.45-0.812
		c0.3-0.224,0.675-0.364,1.201-0.364c0.75,0.112,1.238,0.14,1.463,0.14c0.188,0,0.601,0,1.201-0.056
		c1.876-1.344,4.728-3.556,8.592-6.636c-1.914,0.448-3.264,0.644-4.052,0.644c-2.139,0-3.64-0.616-4.502-1.848
		c-0.375-0.336-0.563-0.784-0.563-1.4c0-0.308,0.15-0.588,0.45-0.812c0.263-0.224,0.638-0.364,1.088-0.364
		c0.188,0,0.413,0.084,0.675,0.196c0.375,0.112,0.675,0.476,0.9,1.064c0.15,0.504,0.713,0.728,1.651,0.728
		c1.201,0,3.189-0.364,5.966-1.148c0.713-0.196,1.388-0.308,2.063-0.308c0.45,0,0.826,0.14,1.125,0.42
		c0.3,0.308,0.45,0.644,0.45,1.036c0,0.448-0.225,0.896-0.638,1.288c-0.45,0.392-1.125,1.008-2.063,1.792
		c-1.351,1.008-3.64,2.632-6.829,4.872c3.152-0.448,5.816-1.036,7.992-1.708c0.976-0.392,1.576-0.616,1.838-0.616
		c0.413,0,0.75,0.112,1.051,0.336c0.263,0.224,0.413,0.504,0.413,0.812C425.969,16.414,425.706,16.777,425.256,17.001z"/>
	<path d="M489.666,17.425c-0.318-0.501-0.477-0.975-0.477-1.422c0-1.567,1.701-3.003,5.103-4.307
		c3.401-1.303,7.136-1.955,11.203-1.955c2.272,0,4.107,0.324,5.505,0.971c1.398,0.647,2.098,1.495,2.098,2.543
		c0,1.941-1.851,3.765-5.551,5.469c2.162,0.438,3.856,1.099,5.084,1.982s1.841,1.887,1.841,3.008c0,2.206-1.606,4.083-4.818,5.633
		s-7.102,2.324-11.67,2.324c-3.359,0-5.038-0.788-5.038-2.365c0-0.374,0.183-1.249,0.55-2.625l2.583-9.693
		c0.208-0.774,0.312-1.326,0.312-1.654c0-0.319-0.146-0.61-0.44-0.875c1.612-0.456,2.742-0.684,3.389-0.684
		c0.757,0,1.136,0.324,1.136,0.972c0,0.164-0.202,0.967-0.604,2.408l-2.4,8.99c-0.269,1.039-0.403,1.719-0.403,2.039
		c0,1.148,1.466,1.724,4.397,1.724c2.406,0,4.467-0.518,6.183-1.554c1.716-1.036,2.574-2.279,2.574-3.731
		c0-1.132-0.476-2.017-1.429-2.655c-0.953-0.64-2.541-1.133-4.763-1.479c-0.794,0.237-1.661,0.355-2.602,0.355
		c-0.318,0-0.715-0.041-1.191-0.123c0.354-0.976,0.797-1.631,1.328-1.969c0.531-0.337,1.389-0.506,2.574-0.506
		c0.305,0,0.714,0.014,1.228,0.041c2.601-1.422,3.902-2.83,3.902-4.225c0-1.649-1.686-2.475-5.056-2.475
		C498.753,11.587,493.904,13.533,489.666,17.425z"/>
	<path d="M542.482,19.293c-2.761,3.611-5.551,6.435-8.373,8.473s-5.356,3.057-7.603,3.057c-1.368,0-2.47-0.333-3.307-0.998
		c-0.837-0.665-1.255-1.541-1.255-2.626c0-0.41,0.122-1.062,0.366-1.955l0.403-1.505c0.599-2.169,0.898-3.692,0.898-4.567
		c0-0.52-0.208-0.943-0.623-1.271c1.588-0.273,2.583-0.41,2.986-0.41c0.904,0,1.355,0.474,1.355,1.42
		c0,0.701-0.177,1.708-0.531,3.019l-0.714,2.663c-0.354,1.284-0.531,2.117-0.531,2.5c0,1.129,0.641,1.693,1.924,1.693
		c1.526,0,3.56-0.958,6.101-2.875c2.54-1.917,5.001-4.346,7.383-7.287L542.482,19.293z M526.177,12.41l0.256,0.014
		c0.818-0.027,1.994-0.335,3.527-0.923c1.532-0.588,2.732-1.188,3.6-1.8c-0.538,1.258-1.49,2.311-2.858,3.158
		c-2.076,1.294-3.481,1.941-4.213,1.941c-0.489,0-0.733-0.223-0.733-0.669C525.755,13.493,525.896,12.919,526.177,12.41z"/>
	<path d="M542.59,24.789c0,2.665,1.514,3.997,4.543,3.997c2.625,0,5.521-0.933,8.684-2.796c3.164-1.865,6.016-4.32,8.557-7.367
		l1.557,0.641c-2.395,3.333-5.506,6.093-9.334,8.279c-3.83,2.187-7.46,3.279-10.892,3.279c-2.198,0-3.936-0.528-5.212-1.586
		c-1.276-1.058-1.915-2.502-1.915-4.334c0-2.644,1.157-4.903,3.472-6.781c2.314-1.877,5.102-2.816,8.363-2.816
		c1.576,0,2.836,0.296,3.783,0.888c0.946,0.592,1.42,1.385,1.42,2.377c0,1.631-1.316,3.075-3.948,4.333
		C549.036,24.16,546.01,24.789,542.59,24.789z M542.737,23.477c2.553-0.1,4.742-0.645,6.568-1.636
		c1.826-0.991,2.739-2.136,2.739-3.437c0-1.163-0.696-1.745-2.088-1.745c-1.661,0-3.194,0.664-4.599,1.991
		C543.952,19.977,543.079,21.586,542.737,23.477z"/>
	<path d="M568.421,25.573c4.335-6.845,8.231-10.268,11.688-10.268c2.698,0,4.049,2.005,4.049,6.016l0.036,1.654
		c0,1.914,0.131,3.238,0.394,3.972c0.263,0.734,0.742,1.101,1.438,1.101c1.051,0,2.244-0.624,3.582-1.873
		c1.337-1.249,3.514-3.76,6.531-7.533l1.538,0.67c-2.687,3.782-5.093,6.59-7.218,8.422s-4.03,2.748-5.716,2.748
		c-1.552,0-2.642-0.561-3.271-1.682s-0.943-3.062-0.943-5.824l-0.019-1.176c0-1.495-0.128-2.545-0.385-3.151
		c-0.256-0.606-0.702-0.909-1.337-0.909c-1.612,0-4.208,2.401-7.786,7.205c-0.88,1.176-1.447,1.933-1.704,2.27
		c-0.94,1.222-1.41,2.105-1.41,2.652c0,0.219,0.079,0.429,0.238,0.629c-0.709,0.219-1.308,0.328-1.796,0.328
		c-1.233,0-1.851-0.511-1.851-1.531c0-0.292,0.159-1.604,0.477-3.938l0.403-2.967c0.183-1.258,0.274-2.233,0.274-2.926
		c0-0.966-0.293-1.727-0.879-2.283c0.256-0.063,0.684-0.173,1.282-0.328c0.757-0.2,1.361-0.301,1.813-0.301
		c0.953,0,1.429,0.52,1.429,1.559c0,0.547-0.091,1.485-0.274,2.816c-0.036,0.292-0.073,0.569-0.11,0.834L568.421,25.573z"/>
	<path d="M599.362,30.851c0.268-0.802,0.402-1.495,0.402-2.078c0-2.251-0.641-4.739-1.924-7.465
		c-1.282-2.725-2.784-4.78-4.507-6.166c1.063-0.401,2.016-0.602,2.858-0.602c1.344,0,2.702,1.315,4.076,3.944
		c1.374,2.63,2.36,5.809,2.959,9.536c2.137-2.023,3.902-4.11,5.295-6.262c1.392-2.151,2.18-4.006,2.363-5.564
		c1.832,0.547,2.748,1.167,2.748,1.859c0,0.62-0.877,2.023-2.629,4.211c-1.753,2.188-3.655,4.257-5.707,6.207
		c-1.002,0.948-1.845,1.559-2.528,1.832C602.085,30.577,600.949,30.76,599.362,30.851z"/>
	<path d="M620.484,24.789c0,2.665,1.515,3.997,4.543,3.997c2.626,0,5.521-0.933,8.685-2.796c3.163-1.865,6.015-4.32,8.556-7.367
		l1.557,0.641c-2.394,3.333-5.505,6.093-9.334,8.279s-7.46,3.279-10.892,3.279c-2.198,0-3.936-0.528-5.212-1.586
		s-1.915-2.502-1.915-4.334c0-2.644,1.157-4.903,3.473-6.781c2.313-1.877,5.102-2.816,8.362-2.816c1.576,0,2.837,0.296,3.783,0.888
		s1.42,1.385,1.42,2.377c0,1.631-1.316,3.075-3.948,4.333C626.93,24.16,623.904,24.789,620.484,24.789z M620.631,23.477
		c2.553-0.1,4.742-0.645,6.567-1.636c1.826-0.991,2.739-2.136,2.739-3.437c0-1.163-0.696-1.745-2.089-1.745
		c-1.661,0-3.193,0.664-4.598,1.991C621.846,19.977,620.973,21.586,620.631,23.477z"/>
	<path d="M646.314,25.573c4.335-6.845,8.231-10.268,11.688-10.268c2.698,0,4.049,2.005,4.049,6.016l0.036,1.654
		c0,1.914,0.131,3.238,0.394,3.972c0.263,0.734,0.742,1.101,1.438,1.101c1.051,0,2.244-0.624,3.582-1.873
		c1.337-1.249,3.514-3.76,6.531-7.533l1.538,0.67c-2.687,3.782-5.093,6.59-7.218,8.422s-4.03,2.748-5.716,2.748
		c-1.552,0-2.642-0.561-3.271-1.682s-0.943-3.062-0.943-5.824l-0.019-1.176c0-1.495-0.128-2.545-0.385-3.151
		c-0.256-0.606-0.702-0.909-1.337-0.909c-1.612,0-4.208,2.401-7.786,7.205c-0.88,1.176-1.447,1.933-1.704,2.27
		c-0.94,1.222-1.41,2.105-1.41,2.652c0,0.219,0.079,0.429,0.238,0.629c-0.709,0.219-1.308,0.328-1.796,0.328
		c-1.233,0-1.851-0.511-1.851-1.531c0-0.292,0.159-1.604,0.477-3.938l0.403-2.967c0.183-1.258,0.274-2.233,0.274-2.926
		c0-0.966-0.293-1.727-0.879-2.283c0.256-0.063,0.684-0.173,1.282-0.328c0.757-0.2,1.361-0.301,1.813-0.301
		c0.953,0,1.429,0.52,1.429,1.559c0,0.547-0.091,1.485-0.274,2.816c-0.036,0.292-0.073,0.569-0.11,0.834L646.314,25.573z"/>
	<path d="M688.596,22.059c-1.686,2.598-3.566,4.708-5.643,6.331c-2.076,1.622-3.939,2.434-5.588,2.434
		c-1.331,0-2.412-0.351-3.242-1.052c-0.831-0.701-1.246-1.612-1.246-2.732c0-1.439,0.647-4.08,1.941-7.923
		c0.354-1.038,0.531-1.694,0.531-1.967c0-0.273-0.116-0.569-0.348-0.888l2.528-0.014c1.087,0,1.631,0.313,1.631,0.941
		c0,0.391-0.354,1.514-1.063,3.37c-0.22,0.555-0.36,0.937-0.421,1.146l-0.274,0.833c-0.538,1.664-0.807,2.933-0.807,3.807
		c0,1.346,0.623,2.019,1.869,2.019c2.039,0,4.629-1.883,7.768-5.648c2.564-3.065,3.848-5.248,3.848-6.549
		c0-0.182-0.074-0.364-0.221-0.545c1.002-0.209,1.851-0.314,2.547-0.314c1.074,0,1.612,0.246,1.612,0.736
		c0,0.119-0.049,0.292-0.146,0.519c-0.049,0.137-0.165,0.469-0.349,0.996c-0.024,0.1-0.146,0.468-0.366,1.105
		c-0.158,0.445-0.274,0.8-0.348,1.064l-0.184,0.655c-0.403,1.5-0.604,2.905-0.604,4.215c0,2,0.647,3.001,1.942,3.001
		c2.857,0,6.485-3.001,10.882-9.003l1.539,0.682c-5.008,7.188-9.588,10.782-13.74,10.782c-2.797,0-4.195-1.81-4.195-5.429
		C688.449,23.945,688.498,23.088,688.596,22.059z"/>
	<path d="M706.493,24.789c0,2.665,1.515,3.997,4.543,3.997c2.626,0,5.521-0.933,8.685-2.796c3.163-1.865,6.015-4.32,8.556-7.367
		l1.557,0.641c-2.394,3.333-5.505,6.093-9.334,8.279s-7.46,3.279-10.892,3.279c-2.198,0-3.936-0.528-5.212-1.586
		s-1.915-2.502-1.915-4.334c0-2.644,1.157-4.903,3.473-6.781c2.313-1.877,5.102-2.816,8.362-2.816c1.576,0,2.837,0.296,3.783,0.888
		s1.42,1.385,1.42,2.377c0,1.631-1.316,3.075-3.948,4.333C712.938,24.16,709.913,24.789,706.493,24.789z M706.64,23.477
		c2.553-0.1,4.742-0.645,6.567-1.636c1.826-0.991,2.739-2.136,2.739-3.437c0-1.163-0.696-1.745-2.089-1.745
		c-1.661,0-3.193,0.664-4.598,1.991C707.854,19.977,706.981,21.586,706.64,23.477z"/>
	<path d="M808.87,31.056c0.33-0.93,0.494-2.146,0.494-3.65c0-3.701-0.388-7.267-1.163-10.699c-0.775-3.432-1.774-6.009-2.995-7.732
		c1.246-0.227,2.149-0.34,2.711-0.34c0.807,0,1.396,0.282,1.769,0.844c0.372,0.563,0.846,1.895,1.42,3.996
		c0.891,3.227,1.538,7.647,1.941,13.262c4.079-6.271,7.407-11.188,9.984-14.752c0.159-0.018,0.275-0.032,0.349-0.041
		c0.513-0.082,0.86-0.123,1.044-0.123c1.014,0,1.521,0.36,1.521,1.08c0,0.21-0.03,0.47-0.092,0.779
		c-0.488,2.962-0.732,5.15-0.732,6.562l-0.055,1.559l-0.019,0.93c0,3.418,0.696,5.127,2.089,5.127c1.587,0,3.212-1.239,4.873-3.717
		c1.844-2.771,2.766-6.004,2.766-9.703c0-1.594-0.531-3.079-1.594-4.455c0.88-0.163,1.68-0.245,2.4-0.245
		c1.123,0,1.917,0.235,2.382,0.704c0.464,0.469,0.696,1.282,0.696,2.439c0,3.744-1.447,7.562-4.343,11.452
		c-1.331,1.785-2.83,3.257-4.497,4.414c-1.667,1.156-3.124,1.735-4.369,1.735c-1.393,0-2.373-0.579-2.94-1.736
		c-0.568-1.157-0.853-3.158-0.853-6.002c0-1.14,0.08-2.89,0.238-5.25c-2.943,3.813-5.19,6.962-6.741,9.443l-0.606,0.999
		c-0.87,1.332-1.559,2.139-2.067,2.422S810.769,30.873,808.87,31.056z"/>
	<path d="M865.039,19.293c-2.761,3.611-5.552,6.435-8.373,8.473s-5.355,3.057-7.603,3.057c-1.368,0-2.471-0.333-3.307-0.998
		c-0.837-0.665-1.255-1.541-1.255-2.626c0-0.41,0.122-1.062,0.366-1.955l0.403-1.505c0.598-2.169,0.897-3.692,0.897-4.567
		c0-0.52-0.208-0.943-0.623-1.271c1.588-0.273,2.583-0.41,2.986-0.41c0.903,0,1.355,0.474,1.355,1.42
		c0,0.701-0.177,1.708-0.531,3.019l-0.714,2.663c-0.354,1.284-0.531,2.117-0.531,2.5c0,1.129,0.641,1.693,1.923,1.693
		c1.527,0,3.561-0.958,6.101-2.875c2.541-1.917,5.002-4.346,7.384-7.287L865.039,19.293z M848.733,12.41l0.257,0.014
		c0.818-0.027,1.994-0.335,3.526-0.923c1.533-0.588,2.732-1.188,3.601-1.8c-0.538,1.258-1.49,2.311-2.858,3.158
		c-2.076,1.294-3.48,1.941-4.214,1.941c-0.488,0-0.732-0.223-0.732-0.669C848.312,13.493,848.453,12.919,848.733,12.41z"/>
	<path d="M881.763,19.339c-2.528,3.582-5.068,6.392-7.621,8.429s-4.812,3.056-6.778,3.056c-1.429,0-2.583-0.412-3.463-1.237
		c-0.879-0.824-1.318-1.902-1.318-3.233c0-0.747,0.183-1.805,0.549-3.172l3.646-13.699c-0.477,0.055-0.893,0.082-1.246,0.082
		c-2.81,0-4.214-0.875-4.214-2.625V6.624c1.466,0.62,3.12,0.93,4.965,0.93c1.844,0,3.456-0.342,4.837-1.025l-4.251,16.447
		c-0.378,1.477-0.567,2.493-0.567,3.049c0,1.54,0.757,2.311,2.271,2.311c1.466,0,2.94-0.617,4.425-1.853
		c1.483-1.234,3.917-3.867,7.3-7.896L881.763,19.339z"/>
	<path d="M898.507,19.339c-2.528,3.582-5.068,6.392-7.621,8.429s-4.812,3.056-6.778,3.056c-1.429,0-2.583-0.412-3.463-1.237
		c-0.879-0.824-1.318-1.902-1.318-3.233c0-0.747,0.183-1.805,0.549-3.172l3.646-13.699c-0.477,0.055-0.893,0.082-1.246,0.082
		c-2.81,0-4.214-0.875-4.214-2.625V6.624c1.466,0.62,3.12,0.93,4.965,0.93c1.844,0,3.456-0.342,4.837-1.025l-4.251,16.447
		c-0.378,1.477-0.567,2.493-0.567,3.049c0,1.54,0.757,2.311,2.271,2.311c1.466,0,2.94-0.617,4.425-1.853
		c1.483-1.234,3.917-3.867,7.3-7.896L898.507,19.339z"/>
	<path d="M900.3,22.675l-0.879,3.254c-0.305,1.14-0.457,2.133-0.457,2.98c0,0.528,0.158,1.012,0.476,1.449
		c-1.251,0.31-2.195,0.465-2.833,0.465c-1.006,0-1.509-0.429-1.509-1.285c0-0.665,0.202-1.755,0.604-3.268l4.489-16.871
		c-1.124,0.301-2.083,0.451-2.877,0.451c-1.429,0-2.143-0.479-2.143-1.436c0-0.319,0.122-0.884,0.368-1.695
		c0.891,0.666,1.965,0.998,3.223,0.998c1.625,0,3.542-0.396,5.752-1.189l-4.031,15.422c1.928-1.731,4.021-3.272,6.278-4.621
		c2.259-1.349,3.863-2.023,4.815-2.023c0.573,0,1.22,0.611,1.94,1.832c-1.196,0.101-2.829,0.597-4.897,1.49
		c-2.068,0.894-3.762,1.827-5.08,2.803c3.075,3.628,5.761,5.441,8.056,5.441c1.073,0,2.126-0.289,3.157-0.868
		c1.031-0.578,2.401-1.652,4.11-3.22c1.623-1.495,2.954-2.894,3.991-4.197l1.52,0.656c-2.222,3.054-4.571,5.521-7.049,7.403
		c-2.478,1.883-4.619,2.823-6.426,2.823c-1.489,0-3.311-0.69-5.464-2.071C903.281,26.018,901.569,24.443,900.3,22.675z"/>
	<path d="M940.402,20.405c0.037,0.219,0.055,0.415,0.055,0.588c0,2.634-1.196,4.931-3.591,6.891
		c-2.394,1.96-5.196,2.939-8.408,2.939c-2.455,0-4.455-0.585-6-1.757c-1.546-1.171-2.317-2.691-2.317-4.56
		c0-2.124,0.998-3.965,2.995-5.523s4.351-2.338,7.062-2.338c0.415,0,0.854,0.041,1.319,0.123c-0.306-0.41-0.458-0.756-0.458-1.039
		c0-0.438,0.201-0.856,0.604-1.258c2.979,0.183,5.459,1.322,7.438,3.418c2.027,1.03,4.141,1.545,6.339,1.545
		c1.429,0,2.974-0.36,4.635-1.08l0.916,1.162c-1.941,1.012-3.933,1.518-5.972,1.518C943.663,21.034,942.125,20.824,940.402,20.405z
		 M936.244,19.243c-1.015-0.228-1.948-0.592-2.804-1.094c-0.623-0.099-1.142-0.149-1.557-0.15c-2.077,0.001-3.917,0.699-5.522,2.093
		c-1.605,1.395-2.409,2.984-2.41,4.771c0.001,1.294,0.487,2.358,1.458,3.191c0.97,0.833,2.218,1.251,3.744,1.252
		c2.064-0.001,3.841-0.778,5.33-2.332s2.234-3.405,2.236-5.557C936.718,20.67,936.56,19.945,936.244,19.243z"/>
	<path d="M953.518,25.676c4.397-6.913,8.281-10.37,11.652-10.37c1.478,0,2.217,0.796,2.217,2.388c0,0.683-0.318,2.22-0.953,4.612
		l-1.099,4.134c2.137-3.352,4.366-6.045,6.687-8.08c2.32-2.036,4.323-3.054,6.009-3.054c1.856,0,2.785,0.811,2.785,2.431
		c0,0.583-0.275,1.917-0.824,4.001l-0.568,2.131c-0.342,1.283-0.513,2.235-0.513,2.854c0,1.093,0.519,1.639,1.557,1.639
		c2.346,0,5.948-3.245,10.81-9.735l1.539,0.641c-5.301,7.704-9.93,11.555-13.887,11.555c-2.528,0-3.793-1.23-3.793-3.691
		c0-0.82,0.244-2.138,0.733-3.951l0.513-1.887c0.342-1.276,0.513-2.069,0.513-2.379c0-0.392-0.269-0.588-0.806-0.588
		c-1.319,0-3.683,1.955-7.09,5.864c-3.091,3.564-4.636,5.602-4.636,6.111c0,0.055,0.024,0.15,0.073,0.287
		c-0.171,0.027-0.47,0.086-0.897,0.178c-0.183,0.047-0.458,0.069-0.824,0.069c-1.136,0-1.704-0.405-1.704-1.216
		c0-0.245,0.184-0.987,0.55-2.226c0.135-0.446,0.269-0.925,0.403-1.435l0.77-2.895c0.562-2.085,0.843-3.337,0.843-3.756
		c0-0.61-0.3-0.915-0.898-0.915c-1.318,0-3.261,1.762-5.825,5.284c-2.553,3.496-3.829,5.58-3.829,6.254
		c0,0.191,0.098,0.377,0.293,0.56c-0.672,0.22-1.289,0.33-1.851,0.33c-1.271,0-1.905-0.511-1.905-1.531
		c0-0.128,0.184-1.454,0.55-3.979l0.422-2.912c0.146-1.021,0.22-1.964,0.22-2.83c0-1.094-0.3-1.896-0.898-2.406
		c1.417-0.383,2.419-0.574,3.005-0.574c1.075,0,1.612,0.474,1.612,1.421c0,0.337-0.146,1.59-0.439,3.758L953.518,25.676z"/>
	<path d="M995.342,25.676c4.397-6.913,8.281-10.37,11.652-10.37c1.478,0,2.217,0.796,2.217,2.388c0,0.683-0.318,2.22-0.953,4.612
		l-1.099,4.134c2.137-3.352,4.366-6.045,6.687-8.08c2.32-2.036,4.323-3.054,6.009-3.054c1.856,0,2.785,0.811,2.785,2.431
		c0,0.583-0.275,1.917-0.824,4.001l-0.568,2.131c-0.342,1.283-0.513,2.235-0.513,2.854c0,1.093,0.519,1.639,1.557,1.639
		c2.346,0,5.948-3.245,10.81-9.735l1.539,0.641c-5.301,7.704-9.93,11.555-13.887,11.555c-2.528,0-3.793-1.23-3.793-3.691
		c0-0.82,0.244-2.138,0.733-3.951l0.513-1.887c0.342-1.276,0.513-2.069,0.513-2.379c0-0.392-0.269-0.588-0.806-0.588
		c-1.319,0-3.683,1.955-7.09,5.864c-3.091,3.564-4.636,5.602-4.636,6.111c0,0.055,0.024,0.15,0.073,0.287
		c-0.171,0.027-0.47,0.086-0.897,0.178c-0.183,0.047-0.458,0.069-0.824,0.069c-1.136,0-1.704-0.405-1.704-1.216
		c0-0.245,0.184-0.987,0.55-2.226c0.135-0.446,0.269-0.925,0.403-1.435l0.77-2.895c0.562-2.085,0.843-3.337,0.843-3.756
		c0-0.61-0.3-0.915-0.898-0.915c-1.318,0-3.261,1.762-5.825,5.284c-2.553,3.496-3.829,5.58-3.829,6.254
		c0,0.191,0.098,0.377,0.293,0.56c-0.672,0.22-1.289,0.33-1.851,0.33c-1.271,0-1.905-0.511-1.905-1.531
		c0-0.128,0.184-1.454,0.55-3.979l0.422-2.912c0.146-1.021,0.22-1.964,0.22-2.83c0-1.094-0.3-1.896-0.898-2.406
		c1.417-0.383,2.419-0.574,3.005-0.574c1.075,0,1.612,0.474,1.612,1.421c0,0.337-0.146,1.59-0.439,3.758L995.342,25.676z"/>
	<path d="M1034.766,24.789c0,2.665,1.515,3.997,4.543,3.997c2.626,0,5.521-0.933,8.685-2.796c3.163-1.865,6.015-4.32,8.556-7.367
		l1.557,0.641c-2.394,3.333-5.505,6.093-9.334,8.279s-7.46,3.279-10.892,3.279c-2.198,0-3.936-0.528-5.212-1.586
		s-1.915-2.502-1.915-4.334c0-2.644,1.157-4.903,3.473-6.781c2.313-1.877,5.102-2.816,8.362-2.816c1.576,0,2.837,0.296,3.783,0.888
		s1.42,1.385,1.42,2.377c0,1.631-1.316,3.075-3.948,4.333C1041.211,24.16,1038.186,24.789,1034.766,24.789z M1034.912,23.477
		c2.553-0.1,4.742-0.645,6.567-1.636c1.826-0.991,2.739-2.136,2.739-3.437c0-1.163-0.696-1.745-2.089-1.745
		c-1.661,0-3.193,0.664-4.598,1.991C1036.127,19.977,1035.254,21.586,1034.912,23.477z"/>
	<path d="M1060.597,25.573c4.335-6.845,8.231-10.268,11.688-10.268c2.698,0,4.049,2.005,4.049,6.016l0.036,1.654
		c0,1.914,0.131,3.238,0.394,3.972c0.263,0.734,0.742,1.101,1.438,1.101c1.051,0,2.244-0.624,3.582-1.873
		c1.337-1.249,3.514-3.76,6.531-7.533l1.538,0.67c-2.687,3.782-5.093,6.59-7.218,8.422s-4.03,2.748-5.716,2.748
		c-1.552,0-2.642-0.561-3.271-1.682s-0.943-3.062-0.943-5.824l-0.019-1.176c0-1.495-0.128-2.545-0.385-3.151
		c-0.256-0.606-0.702-0.909-1.337-0.909c-1.612,0-4.208,2.401-7.786,7.205c-0.88,1.176-1.447,1.933-1.704,2.27
		c-0.94,1.222-1.41,2.105-1.41,2.652c0,0.219,0.079,0.429,0.238,0.629c-0.709,0.219-1.308,0.328-1.796,0.328
		c-1.233,0-1.851-0.511-1.851-1.531c0-0.292,0.159-1.604,0.477-3.938l0.403-2.967c0.183-1.258,0.274-2.233,0.274-2.926
		c0-0.966-0.293-1.727-0.879-2.283c0.256-0.063,0.684-0.173,1.282-0.328c0.757-0.2,1.361-0.301,1.813-0.301
		c0.953,0,1.429,0.52,1.429,1.559c0,0.547-0.091,1.485-0.274,2.816c-0.036,0.292-0.073,0.569-0.11,0.834L1060.597,25.573z"/>
</g>
</svg>
